<mxfile host="65bd71144e">
    <diagram id="j5DIaV3VYlIubbjK7pss" name="PÃ¡gina-1">
        <mxGraphModel dx="820" dy="472" grid="1" gridSize="10" guides="1" tooltips="1" connect="1" arrows="1" fold="1" page="1" pageScale="1" pageWidth="827" pageHeight="1169" math="0" shadow="0">
            <root>
                <mxCell id="0"/>
                <mxCell id="1" parent="0"/>
                <mxCell id="2" value="&lt;b&gt;&lt;font color=&quot;#000000&quot;&gt;INICIO&lt;/font&gt;&lt;/b&gt;" style="ellipse;whiteSpace=wrap;html=1;fillColor=#E5FF00;" vertex="1" parent="1">
                    <mxGeometry x="340" y="20" width="120" height="50" as="geometry"/>
                </mxCell>
                <mxCell id="9" style="edgeStyle=none;html=1;entryX=0.5;entryY=0;entryDx=0;entryDy=0;fontColor=#000000;strokeColor=#D10000;strokeWidth=4;" edge="1" parent="1" source="3" target="4">
                    <mxGeometry relative="1" as="geometry"/>
                </mxCell>
                <mxCell id="3" value="edad" style="shape=card;whiteSpace=wrap;html=1;fontColor=#ffffff;fillColor=#a20025;strokeColor=#6F0000;" vertex="1" parent="1">
                    <mxGeometry x="340" y="110" width="120" height="60" as="geometry"/>
                </mxCell>
                <mxCell id="10" style="edgeStyle=none;html=1;entryX=0.5;entryY=0;entryDx=0;entryDy=0;fontColor=#000000;strokeColor=#D10000;strokeWidth=4;" edge="1" parent="1" source="4" target="5">
                    <mxGeometry relative="1" as="geometry"/>
                </mxCell>
                <mxCell id="4" value="edad" style="shape=parallelogram;perimeter=parallelogramPerimeter;whiteSpace=wrap;html=1;fixedSize=1;fontColor=#ffffff;fillColor=#0050ef;strokeColor=#001DBC;" vertex="1" parent="1">
                    <mxGeometry x="340" y="210" width="120" height="60" as="geometry"/>
                </mxCell>
                <mxCell id="11" style="edgeStyle=none;html=1;entryX=0.5;entryY=0;entryDx=0;entryDy=0;fontColor=#000000;strokeColor=#D10000;strokeWidth=4;" edge="1" parent="1" source="5" target="6">
                    <mxGeometry relative="1" as="geometry">
                        <Array as="points">
                            <mxPoint x="540" y="370"/>
                        </Array>
                    </mxGeometry>
                </mxCell>
                <mxCell id="12" style="edgeStyle=none;html=1;entryX=0.5;entryY=0;entryDx=0;entryDy=0;fontColor=#000000;strokeColor=#D10000;strokeWidth=4;" edge="1" parent="1" source="5" target="7">
                    <mxGeometry relative="1" as="geometry">
                        <Array as="points">
                            <mxPoint x="280" y="370"/>
                            <mxPoint x="270" y="370"/>
                        </Array>
                    </mxGeometry>
                </mxCell>
                <mxCell id="5" value="edad &amp;gt;= 18&amp;nbsp;" style="rhombus;whiteSpace=wrap;html=1;fillColor=#fa6800;fontColor=#000000;strokeColor=#C73500;" vertex="1" parent="1">
                    <mxGeometry x="360" y="330" width="80" height="80" as="geometry"/>
                </mxCell>
                <mxCell id="15" style="edgeStyle=none;html=1;fontColor=#000000;strokeColor=#D10000;strokeWidth=4;entryX=0.417;entryY=1;entryDx=0;entryDy=0;entryPerimeter=0;endArrow=none;endFill=0;" edge="1" parent="1" source="6" target="7">
                    <mxGeometry relative="1" as="geometry">
                        <Array as="points">
                            <mxPoint x="540" y="560"/>
                            <mxPoint x="260" y="560"/>
                        </Array>
                    </mxGeometry>
                </mxCell>
                <mxCell id="6" value="mayor de edad" style="shape=document;whiteSpace=wrap;html=1;boundedLbl=1;fontColor=#ffffff;fillColor=#d80073;strokeColor=#A50040;" vertex="1" parent="1">
                    <mxGeometry x="480" y="440" width="120" height="80" as="geometry"/>
                </mxCell>
                <mxCell id="7" value="menor de edad" style="shape=document;whiteSpace=wrap;html=1;boundedLbl=1;fontColor=#ffffff;fillColor=#d80073;strokeColor=#A50040;" vertex="1" parent="1">
                    <mxGeometry x="210" y="440" width="120" height="80" as="geometry"/>
                </mxCell>
                <mxCell id="8" value="" style="endArrow=classic;html=1;fontColor=#000000;fillColor=#a20025;strokeColor=#D10000;strokeWidth=4;exitX=0.5;exitY=1;exitDx=0;exitDy=0;entryX=0.5;entryY=0;entryDx=0;entryDy=0;entryPerimeter=0;" edge="1" parent="1" source="2" target="3">
                    <mxGeometry width="50" height="50" relative="1" as="geometry">
                        <mxPoint x="330" y="60" as="sourcePoint"/>
                        <mxPoint x="330" y="120" as="targetPoint"/>
                        <Array as="points"/>
                    </mxGeometry>
                </mxCell>
                <mxCell id="16" style="edgeStyle=none;html=1;fontColor=#000000;endArrow=none;endFill=0;strokeColor=#D10000;strokeWidth=4;" edge="1" parent="1" source="13">
                    <mxGeometry relative="1" as="geometry">
                        <mxPoint x="414" y="560" as="targetPoint"/>
                    </mxGeometry>
                </mxCell>
                <mxCell id="13" value="&lt;font color=&quot;#000000&quot;&gt;&lt;b&gt;FINAL&lt;/b&gt;&lt;/font&gt;" style="ellipse;whiteSpace=wrap;html=1;fillColor=#60a917;fontColor=#ffffff;strokeColor=#2D7600;" vertex="1" parent="1">
                    <mxGeometry x="354" y="585" width="120" height="50" as="geometry"/>
                </mxCell>
            </root>
        </mxGraphModel>
    </diagram>
</mxfile>